<mxfile>
  <diagram id="eN4hjve2e9KuaGiEkeDQ" name="Page-1">
    <mxGraphModel dx="1205" dy="1408" grid="1" gridSize="10" guides="1" tooltips="1" connect="1" arrows="1" fold="1" page="1" pageScale="1" pageWidth="850" pageHeight="1100" math="0" shadow="0">
      <root>
        <mxCell id="0" />
        <mxCell id="1" parent="0" />
        <mxCell id="4" value="" style="edgeStyle=none;html=1;" edge="1" parent="1" source="2" target="3">
          <mxGeometry relative="1" as="geometry" />
        </mxCell>
        <mxCell id="2" value="start" style="ellipse;whiteSpace=wrap;html=1;" vertex="1" parent="1">
          <mxGeometry x="325" y="40" width="185" height="80" as="geometry" />
        </mxCell>
        <mxCell id="6" value="" style="edgeStyle=none;html=1;" edge="1" parent="1" source="3" target="5">
          <mxGeometry relative="1" as="geometry" />
        </mxCell>
        <mxCell id="3" value="แสดง&amp;nbsp;&amp;nbsp;&quot;Enter N :&quot;" style="rounded=0;whiteSpace=wrap;html=1;" vertex="1" parent="1">
          <mxGeometry x="317.5" y="160" width="200" height="60" as="geometry" />
        </mxCell>
        <mxCell id="8" value="" style="edgeStyle=none;html=1;" edge="1" parent="1" source="5" target="7">
          <mxGeometry relative="1" as="geometry" />
        </mxCell>
        <mxCell id="5" value="รับค่า N" style="rounded=0;whiteSpace=wrap;html=1;" vertex="1" parent="1">
          <mxGeometry x="317.5" y="260" width="200" height="60" as="geometry" />
        </mxCell>
        <mxCell id="22" value="" style="edgeStyle=none;html=1;" edge="1" parent="1" source="7" target="20">
          <mxGeometry relative="1" as="geometry" />
        </mxCell>
        <mxCell id="7" value="i = 0" style="rounded=0;whiteSpace=wrap;html=1;" vertex="1" parent="1">
          <mxGeometry x="317.5" y="350" width="200" height="60" as="geometry" />
        </mxCell>
        <mxCell id="13" style="edgeStyle=none;html=1;entryX=0.5;entryY=0;entryDx=0;entryDy=0;" edge="1" parent="1" source="9" target="12">
          <mxGeometry relative="1" as="geometry">
            <Array as="points">
              <mxPoint x="240" y="550" />
            </Array>
          </mxGeometry>
        </mxCell>
        <mxCell id="15" style="edgeStyle=none;html=1;entryX=0.5;entryY=0;entryDx=0;entryDy=0;" edge="1" parent="1" source="9" target="14">
          <mxGeometry relative="1" as="geometry">
            <Array as="points">
              <mxPoint x="608" y="550" />
            </Array>
          </mxGeometry>
        </mxCell>
        <mxCell id="9" value="i &amp;lt; N ?" style="rhombus;whiteSpace=wrap;html=1;" vertex="1" parent="1">
          <mxGeometry x="327.5" y="500" width="180" height="100" as="geometry" />
        </mxCell>
        <mxCell id="17" style="edgeStyle=none;html=1;entryX=0;entryY=0.5;entryDx=0;entryDy=0;" edge="1" parent="1" source="12" target="16">
          <mxGeometry relative="1" as="geometry">
            <Array as="points">
              <mxPoint x="240" y="770" />
            </Array>
          </mxGeometry>
        </mxCell>
        <mxCell id="12" value="&amp;nbsp;แสดง &quot;Enter value[i]:&quot;" style="rounded=0;whiteSpace=wrap;html=1;" vertex="1" parent="1">
          <mxGeometry x="140" y="650" width="200" height="60" as="geometry" />
        </mxCell>
        <mxCell id="25" style="edgeStyle=none;html=1;entryX=0.5;entryY=0;entryDx=0;entryDy=0;" edge="1" parent="1" source="14" target="24">
          <mxGeometry relative="1" as="geometry">
            <Array as="points">
              <mxPoint x="608" y="910" />
              <mxPoint x="420" y="910" />
            </Array>
          </mxGeometry>
        </mxCell>
        <mxCell id="14" value="แสดง Index และ Array" style="rounded=0;whiteSpace=wrap;html=1;" vertex="1" parent="1">
          <mxGeometry x="507.5" y="650" width="200" height="60" as="geometry" />
        </mxCell>
        <mxCell id="19" value="" style="edgeStyle=none;html=1;" edge="1" parent="1" source="16" target="18">
          <mxGeometry relative="1" as="geometry" />
        </mxCell>
        <mxCell id="16" value="รับค่า arr[i]" style="rounded=0;whiteSpace=wrap;html=1;" vertex="1" parent="1">
          <mxGeometry x="317.5" y="740" width="200" height="60" as="geometry" />
        </mxCell>
        <mxCell id="21" style="edgeStyle=none;html=1;entryX=0;entryY=0.5;entryDx=0;entryDy=0;" edge="1" parent="1" source="18" target="20">
          <mxGeometry relative="1" as="geometry">
            <Array as="points">
              <mxPoint x="100" y="860" />
              <mxPoint x="100" y="470" />
            </Array>
          </mxGeometry>
        </mxCell>
        <mxCell id="18" value="i = i + 1" style="rounded=0;whiteSpace=wrap;html=1;" vertex="1" parent="1">
          <mxGeometry x="317.5" y="830" width="200" height="60" as="geometry" />
        </mxCell>
        <mxCell id="23" value="" style="edgeStyle=none;html=1;" edge="1" parent="1" source="20" target="9">
          <mxGeometry relative="1" as="geometry" />
        </mxCell>
        <mxCell id="20" value="" style="ellipse;whiteSpace=wrap;html=1;" vertex="1" parent="1">
          <mxGeometry x="402.5" y="450" width="30" height="30" as="geometry" />
        </mxCell>
        <mxCell id="24" value="end" style="ellipse;whiteSpace=wrap;html=1;" vertex="1" parent="1">
          <mxGeometry x="327.5" y="930" width="185" height="80" as="geometry" />
        </mxCell>
      </root>
    </mxGraphModel>
  </diagram>
</mxfile>
